<mxfile host="app.diagrams.net" agent="Mozilla/5.0 (Windows NT 10.0; Win64; x64) AppleWebKit/537.36 (KHTML, like Gecko) Chrome/137.0.0.0 Safari/537.36 Edg/137.0.0.0" version="27.1.4">
  <diagram name="Page-1" id="rtvqMcNyKAJsLp_Cv-yN">
    <mxGraphModel dx="1871" dy="1015" grid="1" gridSize="10" guides="1" tooltips="1" connect="1" arrows="1" fold="1" page="1" pageScale="1" pageWidth="4681" pageHeight="3300" math="0" shadow="0">
      <root>
        <mxCell id="0" />
        <mxCell id="1" parent="0" />
        <mxCell id="ruBGznHotA-V7P8WJPX5-97" value="" style="whiteSpace=wrap;strokeWidth=1;fillColor=#fff2cc;strokeColor=#d6b656;rounded=1;imageHeight=24;arcSize=5;" vertex="1" parent="1">
          <mxGeometry x="270" y="220" width="1530" height="250" as="geometry" />
        </mxCell>
        <mxCell id="ruBGznHotA-V7P8WJPX5-74" value="AskDB System" style="whiteSpace=wrap;strokeWidth=1;fillColor=#fff2cc;strokeColor=#d6b656;rounded=1;imageHeight=24;arcSize=5;" vertex="1" parent="1">
          <mxGeometry x="689" y="20" width="680" height="128" as="geometry" />
        </mxCell>
        <mxCell id="ruBGznHotA-V7P8WJPX5-75" value="Agentic Orchestration &amp; Other Modules" style="whiteSpace=wrap;strokeWidth=2;fillColor=#d5e8d4;strokeColor=#82b366;rounded=1;" vertex="1" parent="1">
          <mxGeometry x="900" y="45" width="260" height="78" as="geometry" />
        </mxCell>
        <mxCell id="ruBGznHotA-V7P8WJPX5-91" style="edgeStyle=orthogonalEdgeStyle;rounded=0;orthogonalLoop=1;jettySize=auto;html=1;entryX=0.5;entryY=0;entryDx=0;entryDy=0;curved=1;" edge="1" parent="1" source="ruBGznHotA-V7P8WJPX5-76" target="ruBGznHotA-V7P8WJPX5-79">
          <mxGeometry relative="1" as="geometry">
            <Array as="points">
              <mxPoint x="1030" y="330" />
              <mxPoint x="904" y="330" />
            </Array>
          </mxGeometry>
        </mxCell>
        <mxCell id="ruBGznHotA-V7P8WJPX5-92" style="edgeStyle=orthogonalEdgeStyle;rounded=0;orthogonalLoop=1;jettySize=auto;html=1;entryX=0.5;entryY=0;entryDx=0;entryDy=0;curved=1;" edge="1" parent="1" source="ruBGznHotA-V7P8WJPX5-76" target="ruBGznHotA-V7P8WJPX5-78">
          <mxGeometry relative="1" as="geometry">
            <Array as="points">
              <mxPoint x="1030" y="330" />
              <mxPoint x="654" y="330" />
            </Array>
          </mxGeometry>
        </mxCell>
        <mxCell id="ruBGznHotA-V7P8WJPX5-93" style="edgeStyle=orthogonalEdgeStyle;rounded=0;orthogonalLoop=1;jettySize=auto;html=1;entryX=0.5;entryY=0;entryDx=0;entryDy=0;curved=1;" edge="1" parent="1" source="ruBGznHotA-V7P8WJPX5-76" target="ruBGznHotA-V7P8WJPX5-77">
          <mxGeometry relative="1" as="geometry">
            <Array as="points">
              <mxPoint x="1030" y="330" />
              <mxPoint x="404" y="330" />
            </Array>
          </mxGeometry>
        </mxCell>
        <mxCell id="ruBGznHotA-V7P8WJPX5-94" style="edgeStyle=orthogonalEdgeStyle;rounded=0;orthogonalLoop=1;jettySize=auto;html=1;entryX=0.5;entryY=0;entryDx=0;entryDy=0;curved=1;" edge="1" parent="1" source="ruBGznHotA-V7P8WJPX5-76" target="ruBGznHotA-V7P8WJPX5-80">
          <mxGeometry relative="1" as="geometry">
            <Array as="points">
              <mxPoint x="1030" y="330" />
              <mxPoint x="1154" y="330" />
            </Array>
          </mxGeometry>
        </mxCell>
        <mxCell id="ruBGznHotA-V7P8WJPX5-95" style="edgeStyle=orthogonalEdgeStyle;rounded=0;orthogonalLoop=1;jettySize=auto;html=1;entryX=0.5;entryY=0;entryDx=0;entryDy=0;curved=1;" edge="1" parent="1" source="ruBGznHotA-V7P8WJPX5-76" target="ruBGznHotA-V7P8WJPX5-81">
          <mxGeometry relative="1" as="geometry">
            <Array as="points">
              <mxPoint x="1030" y="330" />
              <mxPoint x="1404" y="330" />
            </Array>
          </mxGeometry>
        </mxCell>
        <mxCell id="ruBGznHotA-V7P8WJPX5-96" style="edgeStyle=orthogonalEdgeStyle;rounded=0;orthogonalLoop=1;jettySize=auto;html=1;entryX=0.5;entryY=0;entryDx=0;entryDy=0;curved=1;" edge="1" parent="1" source="ruBGznHotA-V7P8WJPX5-76" target="ruBGznHotA-V7P8WJPX5-82">
          <mxGeometry relative="1" as="geometry">
            <Array as="points">
              <mxPoint x="1030" y="330" />
              <mxPoint x="1654" y="330" />
            </Array>
          </mxGeometry>
        </mxCell>
        <mxCell id="ruBGznHotA-V7P8WJPX5-76" value="Gemini 2.0 Flash" style="whiteSpace=wrap;strokeWidth=2;fillColor=#f8cecc;strokeColor=#b85450;rounded=1;" vertex="1" parent="1">
          <mxGeometry x="940" y="246" width="180" height="54" as="geometry" />
        </mxCell>
        <mxCell id="ruBGznHotA-V7P8WJPX5-77" value="Large Context Window" style="whiteSpace=wrap;strokeWidth=2;flipH=0;fillColor=#dae8fc;strokeColor=#6c8ebf;rounded=1;" vertex="1" parent="1">
          <mxGeometry x="296.5" y="380" width="215" height="60" as="geometry" />
        </mxCell>
        <mxCell id="ruBGznHotA-V7P8WJPX5-78" value="Built-in Internet Search Capability" style="whiteSpace=wrap;strokeWidth=2;flipH=0;fillColor=#dae8fc;strokeColor=#6c8ebf;rounded=1;" vertex="1" parent="1">
          <mxGeometry x="546.5" y="380" width="215" height="60" as="geometry" />
        </mxCell>
        <mxCell id="ruBGznHotA-V7P8WJPX5-79" value="Cost-Effectiveness" style="whiteSpace=wrap;strokeWidth=2;flipH=0;imageWidth=23;fillColor=#dae8fc;strokeColor=#6c8ebf;rounded=1;" vertex="1" parent="1">
          <mxGeometry x="796.5" y="380" width="215" height="60" as="geometry" />
        </mxCell>
        <mxCell id="ruBGznHotA-V7P8WJPX5-80" value="Inference Speed" style="whiteSpace=wrap;strokeWidth=2;flipH=0;fillColor=#dae8fc;strokeColor=#6c8ebf;rounded=1;" vertex="1" parent="1">
          <mxGeometry x="1046.5" y="380" width="215" height="60" as="geometry" />
        </mxCell>
        <mxCell id="ruBGznHotA-V7P8WJPX5-81" value="Highly Customizable API" style="whiteSpace=wrap;strokeWidth=2;flipH=0;fillColor=#dae8fc;strokeColor=#6c8ebf;rounded=1;" vertex="1" parent="1">
          <mxGeometry x="1296.5" y="380" width="215" height="60" as="geometry" />
        </mxCell>
        <mxCell id="ruBGznHotA-V7P8WJPX5-82" value="Behavior via Prompt Engineering &#xa;(No Fine-Tuning)" style="whiteSpace=wrap;strokeWidth=2;flipH=0;fillColor=#dae8fc;strokeColor=#6c8ebf;rounded=1;" vertex="1" parent="1">
          <mxGeometry x="1546.5" y="380" width="215" height="60" as="geometry" />
        </mxCell>
        <mxCell id="ruBGznHotA-V7P8WJPX5-89" value="Relies Exclusively On" style="curved=1;startArrow=none;endArrow=block;exitX=0.5;exitY=1;entryX=0.5;entryY=-0.01;rounded=0;" edge="1" parent="1" source="ruBGznHotA-V7P8WJPX5-75" target="ruBGznHotA-V7P8WJPX5-76">
          <mxGeometry relative="1" as="geometry">
            <Array as="points" />
          </mxGeometry>
        </mxCell>
      </root>
    </mxGraphModel>
  </diagram>
</mxfile>
